<?xml version="1.0" encoding="UTF-8"?>
<svg xmlns="http://www.w3.org/2000/svg" xmlns:xlink="http://www.w3.org/1999/xlink" width="108px" height="108px" viewBox="0 0 108 108" version="1.1">
<g id="surface1">
<path style=" stroke:none;fill-rule:nonzero;fill:rgb(0%,0%,0%);fill-opacity:1;" d="M 22.101562 11.035156 C 21.980469 11.359375 21.9375 22.605469 22.019531 36.035156 L 22.75 60.109375 L 23.273438 64.46875 C 27.035156 78.382812 37.632812 90.519531 52.519531 97.960938 L 54.582031 99.011719 L 56.96875 97.757812 C 74.078125 88.777344 84.59375 75.148438 86.65625 59.332031 C 86.941406 57.1875 87.0625 47.84375 86.980469 33.324219 L 86.859375 10.671875 L 54.582031 10.550781 C 27.15625 10.46875 22.300781 10.550781 22.101562 11.035156 Z M 54.863281 29.195312 C 54.90625 34.132812 54.863281 34.738281 54.214844 34.738281 C 53.328125 34.738281 53.125 34.011719 53.570312 32.515625 C 53.773438 31.828125 53.8125 29.722656 53.652344 27.820312 C 53.40625 24.34375 53.570312 23.25 54.378906 23.492188 C 54.660156 23.613281 54.824219 25.800781 54.863281 29.195312 Z M 52.4375 28.144531 C 52.558594 29.84375 52.679688 31.988281 52.679688 32.878906 C 52.679688 33.808594 52.960938 34.980469 53.328125 35.46875 C 54.015625 36.476562 53.972656 38.015625 53.207031 38.257812 C 52.234375 38.582031 51.789062 36.519531 51.507812 30.855469 C 51.34375 26.730469 51.386719 25.03125 51.707031 25.03125 C 51.992188 25.03125 52.273438 26.285156 52.4375 28.144531 Z M 57.007812 30.894531 C 56.765625 36.800781 56.402344 38.378906 55.308594 38.378906 C 54.582031 38.378906 54.460938 36.355469 55.148438 35.667969 C 55.511719 35.304688 56.199219 29.398438 56.28125 25.71875 C 56.320312 25.355469 56.523438 25.03125 56.804688 25.03125 C 57.128906 25.03125 57.167969 26.566406 57.007812 30.894531 Z M 59.152344 30.207031 C 59.152344 34.535156 58.382812 40.078125 57.613281 41.414062 C 56.765625 42.871094 55.550781 43.191406 54.824219 42.179688 C 54.296875 41.492188 54.296875 41.492188 53.773438 42.179688 C 53.085938 43.113281 51.953125 42.910156 50.980469 41.613281 C 49.6875 39.835938 48.757812 27.457031 49.96875 27.457031 C 50.292969 27.457031 50.414062 27.984375 50.332031 29.238281 C 50.089844 32.3125 50.941406 38.136719 51.75 38.582031 C 52.113281 38.785156 52.839844 39.390625 53.367188 39.875 L 54.296875 40.765625 L 55.308594 39.796875 C 55.835938 39.230469 56.5625 38.785156 56.847656 38.785156 C 57.574219 38.785156 57.980469 36.4375 58.140625 31.097656 C 58.222656 28.996094 58.300781 27.214844 58.300781 27.132812 C 58.34375 27.054688 58.542969 27.132812 58.746094 27.253906 C 58.988281 27.378906 59.152344 28.710938 59.152344 30.207031 Z M 33.707031 35.832031 C 34.679688 37.367188 36.015625 39.066406 36.660156 39.671875 C 37.429688 40.359375 37.753906 40.96875 37.550781 41.414062 C 37.1875 42.382812 36.460938 41.980469 35.570312 40.359375 C 35.164062 39.59375 34.113281 38.054688 33.304688 36.964844 C 31.28125 34.253906 31.160156 34.011719 31.445312 33.523438 C 31.566406 33.28125 31.765625 33.121094 31.808594 33.121094 C 31.886719 33.121094 32.738281 34.335938 33.707031 35.832031 Z M 77.355469 33.890625 C 77.355469 34.089844 76.503906 35.386719 75.492188 36.761719 C 74.480469 38.136719 73.308594 39.875 72.945312 40.5625 C 72.539062 41.25 71.972656 41.816406 71.652344 41.816406 C 70.800781 41.816406 70.761719 40.523438 71.609375 40.039062 C 72.015625 39.835938 73.347656 38.175781 74.523438 36.398438 C 76.34375 33.566406 77.355469 32.714844 77.355469 33.890625 Z M 37.390625 37.691406 C 40.503906 42.425781 40.667969 42.828125 40.140625 43.636719 C 39.777344 44.164062 39.65625 44.125 39.128906 43.476562 C 38.804688 43.03125 38.523438 42.34375 38.523438 41.9375 C 38.523438 41.535156 37.511719 39.632812 36.296875 37.773438 C 35.085938 35.871094 34.074219 34.132812 34.074219 33.929688 C 34.074219 32.917969 34.882812 33.847656 37.390625 37.691406 Z M 74.078125 35.023438 C 73.550781 35.871094 72.460938 37.652344 71.609375 38.945312 C 70.761719 40.28125 70.074219 41.738281 70.074219 42.222656 C 70.074219 43.433594 68.941406 44.40625 68.453125 43.636719 C 68.292969 43.355469 68.210938 42.828125 68.332031 42.464844 C 68.820312 41.050781 73.957031 33.523438 74.441406 33.523438 C 74.847656 33.523438 74.722656 33.96875 74.078125 35.023438 Z M 38.238281 35.667969 C 42.363281 41.089844 44.347656 46.507812 42.324219 46.792969 C 41.878906 46.875 41.234375 46.632812 40.949219 46.265625 C 40.503906 45.742188 40.503906 45.417969 41.070312 44.285156 C 41.675781 42.949219 41.675781 42.871094 40.140625 40.28125 C 39.289062 38.824219 38.117188 37.003906 37.550781 36.234375 C 36.984375 35.507812 36.5 34.738281 36.5 34.617188 C 36.5 33.96875 37.308594 34.457031 38.238281 35.667969 Z M 71.972656 35.023438 C 71.652344 35.425781 70.355469 37.367188 69.101562 39.308594 C 66.957031 42.746094 66.878906 42.949219 67.523438 43.878906 C 67.847656 44.40625 68.050781 45.214844 67.929688 45.660156 C 67.765625 46.347656 67.847656 46.386719 68.535156 46.023438 C 68.980469 45.78125 69.871094 45.660156 70.519531 45.742188 C 71.488281 45.902344 71.933594 45.578125 73.632812 43.679688 C 74.722656 42.425781 76.140625 40.644531 76.828125 39.671875 C 77.597656 38.664062 78.203125 38.136719 78.363281 38.378906 C 78.6875 38.945312 75.9375 42.667969 72.703125 45.941406 C 70.839844 47.886719 69.953125 48.492188 69.101562 48.492188 C 68.332031 48.492188 67.929688 48.25 67.765625 47.722656 C 67.644531 47.238281 67.160156 46.875 66.472656 46.792969 C 65.058594 46.632812 64.855469 44.972656 66.027344 42.707031 C 67.886719 39.148438 71.285156 34.335938 71.933594 34.335938 C 72.582031 34.335938 72.582031 34.414062 71.972656 35.023438 Z M 33.464844 38.824219 C 34.921875 40.644531 36.660156 42.503906 37.390625 42.949219 C 38.886719 44 39.289062 44.851562 38.238281 44.851562 C 37.105469 44.851562 36.824219 44.566406 33.34375 40.199219 C 30.554688 36.722656 29.867188 35.546875 30.632812 35.546875 C 30.714844 35.546875 32.011719 37.003906 33.464844 38.824219 Z M 76.058594 39.269531 C 72.703125 43.636719 71.488281 44.851562 70.679688 44.851562 C 69.667969 44.851562 70.113281 43.597656 71.367188 42.871094 C 71.972656 42.503906 73.671875 40.726562 75.167969 38.90625 C 76.625 37.042969 78 35.667969 78.203125 35.789062 C 78.40625 35.910156 77.433594 37.488281 76.058594 39.269531 Z M 31.929688 39.875 C 32.535156 40.804688 33.953125 42.464844 35.003906 43.597656 C 36.582031 45.253906 37.1875 45.660156 38.238281 45.660156 C 40.949219 45.660156 42.082031 48.128906 39.574219 48.410156 C 38.523438 48.53125 37.957031 48.128906 35.367188 45.378906 C 32.089844 41.898438 29.90625 38.863281 30.269531 38.296875 C 30.554688 37.851562 30.554688 37.8125 31.929688 39.875 Z M 52.113281 43.476562 C 52.839844 43.839844 53.570312 44.488281 53.691406 44.890625 C 53.933594 45.621094 54.054688 45.578125 55.148438 44.445312 C 55.835938 43.800781 56.523438 43.234375 56.722656 43.234375 C 56.925781 43.234375 57.371094 43.113281 57.777344 42.949219 C 58.382812 42.746094 58.421875 42.871094 58.179688 44.285156 C 57.65625 46.914062 55.914062 48.128906 54.660156 46.632812 C 54.214844 46.066406 54.136719 46.066406 53.8125 46.632812 C 53.609375 46.996094 53.003906 47.277344 52.4375 47.277344 C 51.667969 47.277344 51.304688 46.953125 50.820312 45.863281 C 50.253906 44.445312 50.050781 42.828125 50.496094 42.828125 C 50.617188 42.828125 51.34375 43.113281 52.113281 43.476562 Z M 65.625 48.773438 C 65.625 49.785156 64.371094 50.636719 63.4375 50.269531 C 62.628906 49.949219 62.628906 48.371094 63.4375 46.792969 L 64.085938 45.539062 L 64.855469 46.710938 C 65.257812 47.359375 65.625 48.289062 65.625 48.773438 Z M 45.398438 47.117188 C 46.25 49.339844 45.601562 50.878906 44.023438 50.269531 C 43.699219 50.148438 43.375 50.394531 43.253906 50.878906 C 42.929688 52.132812 41.234375 51.96875 39.65625 50.554688 L 38.320312 49.382812 L 39.734375 49.097656 C 40.503906 48.976562 41.597656 49.015625 42.164062 49.21875 C 43.09375 49.582031 43.175781 49.503906 43.214844 48.453125 C 43.253906 47.277344 43.984375 46.066406 44.628906 46.066406 C 44.832031 46.066406 45.195312 46.550781 45.398438 47.117188 Z M 53.449219 49.140625 L 54.175781 50.070312 L 54.945312 49.261719 C 55.835938 48.289062 57.898438 47.117188 58.222656 47.441406 C 58.667969 47.84375 57.855469 50.59375 57.089844 51.363281 C 56.117188 52.335938 55.714844 52.335938 54.703125 51.242188 C 54.054688 50.554688 53.894531 50.515625 53.894531 51 C 53.894531 51.847656 52.800781 52.214844 51.871094 51.726562 C 51.140625 51.324219 50.253906 49.339844 50.253906 48.046875 C 50.253906 47.398438 50.414062 47.359375 51.464844 47.761719 C 52.152344 47.964844 53.042969 48.613281 53.449219 49.140625 Z M 69.425781 49.261719 C 70.113281 49.503906 70.03125 49.664062 68.859375 50.636719 C 67.402344 51.847656 65.746094 52.050781 65.339844 51.039062 C 64.816406 49.664062 67.445312 48.492188 69.425781 49.261719 Z M 47.824219 50.472656 C 48.511719 52.171875 48.230469 53.507812 47.136719 53.667969 C 45.722656 53.871094 45.117188 52.214844 45.964844 50.554688 C 46.773438 48.976562 47.179688 48.976562 47.824219 50.472656 Z M 62.347656 49.828125 C 63.15625 50.835938 63.316406 52.738281 62.628906 53.304688 C 61.011719 54.640625 59.839844 52.820312 60.769531 50.472656 C 61.335938 49.179688 61.660156 49.015625 62.347656 49.828125 Z M 45.316406 53.023438 C 46.328125 54.035156 45.640625 55.367188 44.183594 55.367188 C 43.699219 55.367188 41.355469 53.34375 41.355469 52.902344 C 41.355469 52.375 44.75 52.457031 45.316406 53.023438 Z M 54.824219 54.035156 C 54.945312 54.882812 55.1875 56.984375 55.347656 58.683594 L 55.632812 61.839844 L 53.003906 61.839844 L 53.246094 59.695312 C 53.367188 58.5625 53.609375 56.460938 53.730469 55.042969 C 54.015625 52.214844 54.5 51.808594 54.824219 54.035156 Z M 67.242188 52.902344 C 67.242188 53.507812 64.734375 55.410156 64.085938 55.289062 C 63.074219 55.085938 62.550781 53.910156 63.15625 53.183594 C 63.722656 52.496094 67.242188 52.253906 67.242188 52.902344 Z M 48.433594 55.8125 C 49.523438 57.148438 50.738281 59.371094 51.222656 60.910156 C 51.507812 61.71875 51.386719 61.839844 50.292969 61.839844 C 49.28125 61.839844 49.039062 61.679688 49.039062 60.910156 C 49.039062 60.425781 48.472656 58.847656 47.824219 57.472656 C 47.136719 56.054688 46.613281 54.800781 46.613281 54.722656 C 46.613281 54.195312 47.503906 54.722656 48.433594 55.8125 Z M 61.863281 55.042969 C 60.363281 58.484375 59.554688 60.546875 59.554688 61.113281 C 59.554688 61.636719 59.234375 61.839844 58.300781 61.839844 C 57.210938 61.839844 57.089844 61.71875 57.371094 60.910156 C 57.816406 59.414062 58.789062 57.671875 60.042969 56.054688 C 61.175781 54.640625 62.304688 53.992188 61.863281 55.042969 Z M 59.878906 64.144531 C 60 65.074219 60 65.074219 54.339844 65.074219 C 49.078125 65.074219 48.632812 65.035156 48.632812 64.347656 C 48.632812 63.941406 48.757812 63.457031 48.917969 63.296875 C 49.078125 63.175781 51.585938 63.09375 54.460938 63.132812 C 59.597656 63.253906 59.757812 63.296875 59.878906 64.144531 Z M 50.820312 66.773438 C 49.886719 69.847656 48.109375 74.378906 47.867188 74.378906 C 47.378906 74.378906 44.996094 73.53125 44.996094 73.328125 C 44.996094 73.207031 47.503906 68.960938 48.878906 66.773438 C 49.199219 66.289062 49.847656 65.886719 50.292969 65.886719 C 50.941406 65.886719 51.0625 66.046875 50.820312 66.773438 Z M 55.511719 69.402344 C 55.753906 71.386719 56.078125 73.449219 56.160156 74.054688 C 56.402344 75.1875 56.359375 75.1875 54.09375 75.1875 C 51.832031 75.1875 51.789062 75.1875 52.03125 74.054688 C 52.113281 73.449219 52.4375 71.386719 52.679688 69.402344 C 53.125 66.128906 53.246094 65.886719 54.09375 65.886719 C 54.945312 65.886719 55.066406 66.128906 55.511719 69.402344 Z M 61.011719 69.523438 C 62.183594 71.425781 63.15625 73.085938 63.195312 73.246094 C 63.195312 73.570312 60.40625 74.542969 60.164062 74.296875 C 59.960938 74.097656 57.128906 66.371094 57.128906 66.046875 C 57.128906 65.925781 57.535156 65.886719 57.980469 65.964844 C 58.585938 66.046875 59.554688 67.179688 61.011719 69.523438 Z M 61.011719 69.523438 "/>
</g>
</svg>
