<?xml version="1.0" encoding="UTF-8"?>
<svg xmlns="http://www.w3.org/2000/svg" xmlns:xlink="http://www.w3.org/1999/xlink" width="24px" height="24px" viewBox="0 0 24 24" version="1.1">
<g id="surface1">
<path style=" stroke:none;fill-rule:nonzero;fill:rgb(0%,0%,0%);fill-opacity:1;" d="M 1.714844 3.070312 C 0.515625 3.375 -0.230469 4.585938 0.0703125 5.742188 C 0.183594 6.160156 0.40625 6.539062 0.710938 6.824219 C 1.164062 7.238281 1.589844 7.40625 2.1875 7.410156 C 2.640625 7.410156 2.878906 7.355469 3.253906 7.15625 C 4.402344 6.546875 4.757812 5.078125 4.015625 3.976562 C 3.53125 3.25 2.550781 2.859375 1.714844 3.070312 Z M 1.714844 3.070312 "/>
<path style=" stroke:none;fill-rule:nonzero;fill:rgb(0%,0%,0%);fill-opacity:1;" d="M 7.804688 3.054688 C 7.269531 3.160156 6.675781 3.5625 6.382812 4.015625 C 6.125 4.421875 6.039062 4.785156 6.054688 5.320312 C 6.070312 5.746094 6.089844 5.820312 6.242188 6.15625 C 6.585938 6.867188 7.210938 7.3125 8.015625 7.40625 C 8.277344 7.4375 10.785156 7.453125 15.304688 7.445312 L 22.195312 7.429688 L 22.472656 7.320312 C 22.882812 7.167969 23.105469 7.023438 23.375 6.742188 C 23.648438 6.449219 23.828125 6.121094 23.929688 5.734375 C 24.234375 4.570312 23.46875 3.355469 22.261719 3.070312 C 22 3.007812 21.054688 3 15 3.003906 C 10.808594 3.007812 7.945312 3.027344 7.804688 3.054688 Z M 7.804688 3.054688 "/>
<path style=" stroke:none;fill-rule:nonzero;fill:rgb(0%,0%,0%);fill-opacity:1;" d="M 1.65625 9.867188 C 1.261719 9.976562 0.9375 10.164062 0.65625 10.449219 C -0.214844 11.335938 -0.21875 12.671875 0.65625 13.546875 C 1.359375 14.25 2.351562 14.398438 3.25 13.9375 C 3.777344 13.65625 4.222656 13.082031 4.359375 12.5 C 4.414062 12.242188 4.414062 11.75 4.355469 11.488281 C 4.222656 10.914062 3.710938 10.273438 3.1875 10.023438 C 2.710938 9.796875 2.136719 9.742188 1.65625 9.867188 Z M 1.65625 9.867188 "/>
<path style=" stroke:none;fill-rule:nonzero;fill:rgb(0%,0%,0%);fill-opacity:1;" d="M 7.679688 9.867188 C 7.15625 10.007812 6.601562 10.425781 6.34375 10.859375 C 5.949219 11.535156 5.949219 12.464844 6.34375 13.140625 C 6.5 13.40625 6.960938 13.832031 7.238281 13.96875 C 7.742188 14.210938 7.425781 14.203125 15 14.203125 C 22.71875 14.203125 22.316406 14.21875 22.847656 13.929688 C 23.195312 13.75 23.582031 13.339844 23.761719 12.980469 C 24.378906 11.71875 23.691406 10.222656 22.328125 9.867188 C 22.09375 9.804688 21.113281 9.796875 14.976562 9.800781 C 9.351562 9.804688 7.851562 9.816406 7.679688 9.867188 Z M 7.679688 9.867188 "/>
<path style=" stroke:none;fill-rule:nonzero;fill:rgb(0%,0%,0%);fill-opacity:1;" d="M 1.921875 16.597656 C 1.070312 16.6875 0.304688 17.371094 0.0703125 18.257812 C -0.25 19.480469 0.59375 20.738281 1.878906 20.953125 C 3.1875 21.171875 4.40625 20.125 4.40625 18.773438 C 4.40625 17.441406 3.285156 16.460938 1.921875 16.597656 Z M 1.921875 16.597656 "/>
<path style=" stroke:none;fill-rule:nonzero;fill:rgb(0%,0%,0%);fill-opacity:1;" d="M 7.925781 16.597656 C 7.21875 16.6875 6.566406 17.175781 6.242188 17.84375 C 6.074219 18.203125 6.070312 18.226562 6.070312 18.75 C 6.070312 19.199219 6.089844 19.335938 6.179688 19.578125 C 6.394531 20.136719 6.945312 20.667969 7.546875 20.882812 C 7.800781 20.976562 7.964844 20.976562 14.8125 20.992188 C 19.878906 21 21.910156 20.992188 22.140625 20.949219 C 23.398438 20.738281 24.242188 19.472656 23.929688 18.257812 C 23.695312 17.367188 22.960938 16.710938 22.0625 16.59375 C 21.648438 16.539062 8.347656 16.542969 7.925781 16.597656 Z M 7.925781 16.597656 "/>
</g>
</svg>
