<?xml version="1.0" encoding="UTF-8"?>
<svg xmlns="http://www.w3.org/2000/svg" xmlns:xlink="http://www.w3.org/1999/xlink" width="24px" height="24px" viewBox="0 0 24 24" version="1.1">
<g id="surface1">
<path style=" stroke:none;fill-rule:nonzero;fill:rgb(0%,0%,0%);fill-opacity:1;" d="M 2.015625 1.875 C 1.335938 1.964844 0.773438 2.320312 0.378906 2.90625 C -0.0078125 3.492188 0.0234375 2.691406 0.0234375 12 C 0.0234375 21.308594 -0.0078125 20.507812 0.378906 21.09375 C 0.699219 21.566406 1.144531 21.898438 1.683594 22.070312 C 1.925781 22.144531 2.597656 22.148438 12 22.148438 C 21.402344 22.148438 22.074219 22.144531 22.316406 22.070312 C 22.855469 21.898438 23.300781 21.566406 23.621094 21.09375 C 24.007812 20.507812 23.976562 21.308594 23.976562 12 C 23.976562 4.132812 23.972656 3.710938 23.890625 3.460938 C 23.675781 2.773438 23.078125 2.183594 22.339844 1.9375 C 22.117188 1.855469 21.5 1.851562 12.1875 1.847656 C 6.734375 1.84375 2.15625 1.855469 2.015625 1.875 Z M 7.097656 5.578125 C 7.164062 5.601562 7.25 5.675781 7.296875 5.75 C 7.375 5.867188 7.382812 6.015625 7.382812 7.414062 L 7.382812 8.953125 L 7.25 9.078125 L 7.125 9.210938 L 2.109375 9.210938 L 1.984375 9.078125 L 1.851562 8.953125 L 1.851562 7.386719 C 1.851562 5.886719 1.855469 5.816406 1.945312 5.71875 C 1.996094 5.664062 2.082031 5.597656 2.132812 5.574219 C 2.269531 5.523438 6.953125 5.523438 7.097656 5.578125 Z M 14.480469 5.582031 C 14.757812 5.679688 14.765625 5.742188 14.765625 7.382812 C 14.765625 8.992188 14.757812 9.066406 14.507812 9.179688 C 14.335938 9.257812 9.664062 9.257812 9.492188 9.179688 C 9.242188 9.066406 9.234375 8.992188 9.234375 7.386719 C 9.234375 5.78125 9.242188 5.703125 9.492188 5.597656 C 9.679688 5.515625 14.246094 5.503906 14.480469 5.582031 Z M 22.015625 5.6875 L 22.148438 5.8125 L 22.148438 8.953125 L 22.015625 9.078125 L 21.890625 9.210938 L 16.875 9.210938 L 16.75 9.078125 L 16.617188 8.953125 L 16.617188 7.414062 C 16.617188 6.015625 16.625 5.867188 16.703125 5.75 C 16.75 5.675781 16.832031 5.601562 16.890625 5.578125 C 16.945312 5.554688 18.078125 5.539062 19.4375 5.546875 L 21.890625 5.554688 Z M 7.125 11.148438 C 7.398438 11.28125 7.414062 11.394531 7.398438 13.046875 L 7.382812 14.492188 L 7.226562 14.628906 L 7.078125 14.765625 L 4.640625 14.765625 C 3.007812 14.765625 2.171875 14.746094 2.09375 14.714844 C 1.859375 14.605469 1.851562 14.5625 1.835938 13 C 1.824219 11.78125 1.832031 11.511719 1.894531 11.371094 C 2.019531 11.0625 2 11.066406 4.617188 11.0625 C 6.753906 11.0625 6.976562 11.070312 7.125 11.148438 Z M 14.5625 11.152344 C 14.75 11.277344 14.765625 11.382812 14.765625 12.917969 C 14.765625 14.523438 14.757812 14.597656 14.507812 14.710938 C 14.335938 14.789062 9.664062 14.789062 9.492188 14.710938 C 9.242188 14.597656 9.234375 14.523438 9.234375 12.914062 C 9.234375 11.40625 9.25 11.289062 9.417969 11.179688 C 9.582031 11.078125 9.765625 11.070312 12.070312 11.078125 C 14.066406 11.085938 14.480469 11.09375 14.5625 11.152344 Z M 21.871094 11.132812 C 22.164062 11.253906 22.175781 11.34375 22.164062 13 C 22.148438 14.5625 22.140625 14.605469 21.90625 14.714844 C 21.828125 14.746094 20.992188 14.765625 19.359375 14.765625 L 16.921875 14.765625 L 16.773438 14.628906 L 16.617188 14.492188 L 16.601562 13.046875 C 16.585938 11.394531 16.601562 11.28125 16.875 11.148438 C 17.023438 11.070312 17.246094 11.0625 19.375 11.0625 C 21.3125 11.0625 21.734375 11.070312 21.871094 11.132812 Z M 7.046875 16.644531 C 7.375 16.734375 7.382812 16.777344 7.398438 18.257812 C 7.414062 19.8125 7.398438 20.011719 7.234375 20.175781 L 7.109375 20.296875 L 2.125 20.296875 L 2 20.175781 C 1.832031 20.007812 1.820312 19.859375 1.835938 18.304688 C 1.851562 16.785156 1.867188 16.734375 2.171875 16.644531 C 2.386719 16.585938 6.820312 16.578125 7.046875 16.644531 Z M 14.628906 16.773438 L 14.765625 16.921875 L 14.765625 20.023438 L 14.492188 20.296875 L 9.507812 20.296875 L 9.234375 20.023438 L 9.234375 16.929688 L 9.351562 16.785156 C 9.417969 16.710938 9.53125 16.636719 9.601562 16.625 C 9.671875 16.617188 10.800781 16.609375 12.109375 16.613281 L 14.492188 16.617188 Z M 21.8125 16.644531 C 22.140625 16.734375 22.148438 16.765625 22.164062 18.304688 C 22.179688 19.859375 22.167969 20.007812 22 20.175781 L 21.875 20.296875 L 16.890625 20.296875 L 16.765625 20.175781 C 16.601562 20.011719 16.585938 19.8125 16.601562 18.257812 C 16.617188 16.789062 16.632812 16.734375 16.9375 16.644531 C 17.152344 16.585938 21.585938 16.578125 21.8125 16.644531 Z M 21.8125 16.644531 "/>
</g>
</svg>
